<svg width="77" height="78" viewBox="0 0 77 78" fill="none" xmlns="http://www.w3.org/2000/svg">
<g filter="url(#filter0_d_1_140)">
<path d="M16.5518 1.5006L42.5636 35.1098L16.5518 68.719L4.72827 56.2132L29.9518 35.1098L4.72827 14.0063L16.5518 1.5006Z" fill="#353535"/>
<path d="M40.1989 20.2592L48.0812 30.4201L71.7283 14.0063L58.3283 0.718992L40.1989 20.2592Z" fill="#353535"/>
<path d="M40.1989 47.6155L49.6577 38.2362L71.7283 55.4316L58.3283 68.719L40.1989 47.6155Z" fill="#353535"/>
<path d="M16.5518 1.5006L42.5636 35.1098L16.5518 68.719L4.72827 56.2132L29.9518 35.1098L4.72827 14.0063L16.5518 1.5006Z" stroke="black"/>
<path d="M40.1989 20.2592L48.0812 30.4201L71.7283 14.0063L58.3283 0.718992L40.1989 20.2592Z" stroke="black"/>
<path d="M40.1989 47.6155L49.6577 38.2362L71.7283 55.4316L58.3283 68.719L40.1989 47.6155Z" stroke="black"/>
</g>
<defs>
<filter id="filter0_d_1_140" x="0" y="0" width="76.5071" height="77.4869" filterUnits="userSpaceOnUse" color-interpolation-filters="sRGB">
<feFlood flood-opacity="0" result="BackgroundImageFix"/>
<feColorMatrix in="SourceAlpha" type="matrix" values="0 0 0 0 0 0 0 0 0 0 0 0 0 0 0 0 0 0 127 0" result="hardAlpha"/>
<feOffset dy="4"/>
<feGaussianBlur stdDeviation="2"/>
<feComposite in2="hardAlpha" operator="out"/>
<feColorMatrix type="matrix" values="0 0 0 0 0 0 0 0 0 0 0 0 0 0 0 0 0 0 0.25 0"/>
<feBlend mode="normal" in2="BackgroundImageFix" result="effect1_dropShadow_1_140"/>
<feBlend mode="normal" in="SourceGraphic" in2="effect1_dropShadow_1_140" result="shape"/>
</filter>
</defs>
</svg>
