<?xml version="1.0" encoding="UTF-8"?>
<svg id="Layer_1" data-name="Layer 1" xmlns="http://www.w3.org/2000/svg" viewBox="0 0 128 128">
  <defs>
    <style>
      .cls-1 {
        fill: none;
        stroke: #8b8b8b;
        stroke-miterlimit: 10;
        stroke-width: 6px;
      }
    </style>
  </defs>
  <polyline class="cls-1" points="68.299 87.724 17.093 87.724 17.093 66.584 68.299 66.584"/>
  <path class="cls-1" d="M67.477,56.483H22.848s-3.288,1.762-3.288,4.698v5.403"/>
  <path class="cls-1" d="M62.075,53.9s1.174-9.161-6.46-9.161h-17.617s-4.228,1.409-4.228,9.161"/>
  <path class="cls-1" d="M62.14,29.706H27.193s-4.58.587-4.58,5.637.235,21.14.235,21.14"/>
  <line class="cls-1" x1="17.093" y1="98.294" x2="17.093" y2="87.724"/>
  <polyline class="cls-1" points="59.701 87.724 110.907 87.724 110.907 66.584 59.701 66.584"/>
  <path class="cls-1" d="M60.523,56.483h44.629s3.288,1.762,3.288,4.698v5.403"/>
  <path class="cls-1" d="M65.925,53.9s-1.174-9.161,6.46-9.161c7.634,0,17.617,0,17.617,0,0,0,4.228,1.409,4.228,9.161"/>
  <path class="cls-1" d="M62.14,29.706h38.667s4.58.587,4.58,5.637-.235,21.14-.235,21.14"/>
  <line class="cls-1" x1="110.907" y1="98.294" x2="110.907" y2="87.724"/>
</svg>