<svg id="Layer_1" data-name="Layer 1" xmlns="http://www.w3.org/2000/svg" viewBox="0 0 99.814 71.589">
  <defs>
    <style>
      .cls-1 {
        fill: none;
        stroke: #8b8b8b;
        stroke-miterlimit: 10;
        stroke-width: 6px;
      }
    </style>
  </defs>
  <polyline class="cls-1" points="54.206 61.018 3 61.018 3 39.878 54.206 39.878"/>
  <path class="cls-1" d="M53.384,29.778H8.755s-3.288,1.762-3.288,4.698v5.403"/>
  <path class="cls-1" d="M47.982,27.194s1.174-9.161-6.46-9.161h-17.617s-4.228,1.409-4.228,9.161"/>
  <path class="cls-1" d="M48.047,3H13.1s-4.58.587-4.58,5.637.235,21.14.235,21.14"/>
  <line class="cls-1" x1="3" y1="71.589" x2="3" y2="61.018"/>
  <polyline class="cls-1" points="45.608 61.018 96.814 61.018 96.814 39.878 45.608 39.878"/>
  <path class="cls-1" d="M46.43,29.778h44.629s3.288,1.762,3.288,4.698v5.403"/>
  <path class="cls-1" d="M51.832,27.194s-1.174-9.161,6.46-9.161c7.634,0,17.617,0,17.617,0,0,0,4.228,1.409,4.228,9.161"/>
  <path class="cls-1" d="M48.047,3h38.667s4.58.587,4.58,5.637-.235,21.14-.235,21.14"/>
  <line class="cls-1" x1="96.814" y1="71.589" x2="96.814" y2="61.018"/>
</svg>